HIERARCHY
ROOT Hips
{
	OFFSET -3.958830 18.904000 13.208200
	CHANNELS 6 Xposition Yposition Zposition Zrotation Yrotation Xrotation 
	JOINT LHipJoint
	{
		OFFSET 0.000000 0.000000 0.000000
		CHANNELS 3 Zrotation Yrotation Xrotation
		JOINT LeftUpLeg
		{
			OFFSET 1.800000 -1.400000 0.085000
			CHANNELS 3 Zrotation Yrotation Xrotation
			JOINT LeftLeg
			{
				OFFSET 2.215000 -6.000000 0.000000
				CHANNELS 3 Zrotation Yrotation Xrotation
				JOINT LeftFoot
				{
					OFFSET 2.500000 -6.900000 0.000000
					CHANNELS 3 Zrotation Yrotation Xrotation
					JOINT LeftToeBase
					{
						OFFSET 0.200000 -0.500000 1.950000
						CHANNELS 3 Zrotation Yrotation Xrotation
						End Site
						{
							OFFSET 0.000000 0.000000 0.000000
						}
					}
				}
			}
		}
	}
	JOINT RHipJoint
	{
		OFFSET 0.000000 0.000000 0.000000
		CHANNELS 3 Zrotation Yrotation Xrotation
		JOINT RightUpLeg
		{
			OFFSET -1.800000 -1.400000 0.085000
			CHANNELS 3 Zrotation Yrotation Xrotation
			JOINT RightLeg
			{
				OFFSET -2.215000 -6.000000 0.000000
				CHANNELS 3 Zrotation Yrotation Xrotation
				JOINT RightFoot
				{
					OFFSET -2.500000 -6.900000 0.000000
					CHANNELS 3 Zrotation Yrotation Xrotation
					JOINT RightToeBase
					{
						OFFSET -0.200000 -0.500000 1.950000
						CHANNELS 3 Zrotation Yrotation Xrotation
						End Site
						{
							OFFSET 0.000000 0.000000 0.000000
						}
					}
				}
			}
		}
	}
	JOINT LowerBack
	{
		OFFSET 0.000000 0.000000 0.000000
		CHANNELS 3 Zrotation Yrotation Xrotation
		JOINT Spine
		{
			OFFSET -0.087000 1.940000 -0.288900
			CHANNELS 3 Zrotation Yrotation Xrotation
			JOINT Spine1
			{
				OFFSET 0.000000 1.950000 0.060000
				CHANNELS 3 Zrotation Yrotation Xrotation
				JOINT Neck
				{
					OFFSET 0.000000 0.000000 0.000000
					CHANNELS 3 Zrotation Yrotation Xrotation
					JOINT Neck1
					{
						OFFSET 0.000000 1.600000 0.340000
						CHANNELS 3 Zrotation Yrotation Xrotation
						JOINT Head
						{
							OFFSET 0.000000 1.667000 -0.240000
							CHANNELS 3 Zrotation Yrotation Xrotation
							End Site
							{
								OFFSET 0.000000 0.000000 0.000000
							}
						}
					}
				}
				JOINT LeftShoulder
				{
					OFFSET 0.000000 0.000000 0.000000
					CHANNELS 3 Zrotation Yrotation Xrotation
					JOINT LeftArm
					{
						OFFSET 2.700000 1.550000 -0.730000
						CHANNELS 3 Zrotation Yrotation Xrotation
						JOINT LeftForeArm
						{
							OFFSET 5.450000 0.000000 0.000000
							CHANNELS 3 Zrotation Yrotation Xrotation
							JOINT LeftHand
							{
								OFFSET 3.450000 0.000000 0.000000
								CHANNELS 3 Zrotation Yrotation Xrotation
								JOINT LeftHandIndex1
								{
									OFFSET 0.750000 0.000000 0.000000
									CHANNELS 3 Zrotation Yrotation Xrotation
									End Site
									{
										OFFSET 0.000000 0.000000 0.000000
									}
								}
							}
						}
					}
				}
				JOINT RightShoulder
				{
					OFFSET 0.000000 0.000000 0.000000
					CHANNELS 3 Zrotation Yrotation Xrotation
					JOINT RightArm
					{
						OFFSET -2.700000 1.550000 -0.730000
						CHANNELS 3 Zrotation Yrotation Xrotation
						JOINT RightForeArm
						{
							OFFSET -5.450000 0.000000 0.000000
							CHANNELS 3 Zrotation Yrotation Xrotation
							JOINT RightHand
							{
								OFFSET -3.450000 0.000000 0.000000
								CHANNELS 3 Zrotation Yrotation Xrotation
								JOINT RightHandIndex1
								{
									OFFSET -0.750000 0.000000 0.000000
									CHANNELS 3 Zrotation Yrotation Xrotation
									End Site
									{
										OFFSET 0.000000 0.000000 0.000000
									}
								}
							}
						}
					}
				}
			}
		}
	}
}
MOTION
Frames: 13
Frame Time: 0.016667
0.301560 17.339190 -1.701020 -5.896434 16.621038 4.786540 -14.973975 12.333753 2.153608 -1.119963 -1.021384 -12.349106 1.184062 3.952895 17.906583 -0.736017 4.083126 3.533585 0.008840 -0.311300 -0.184870 18.587343 -11.132531 3.521684 -2.111353 4.259820 -26.658806 8.733273 -2.836952 2.414827 0.257538 -2.769886 3.477385 0.052060 0.993470 0.458740 -4.621798 1.484736 -6.688420 10.768293 0.315764 1.679275 -2.474838 -0.666229 8.623749 3.370074 4.659203 -7.720135 8.921073 -9.027022 20.429509 -6.681650 -7.147900 2.523320 -11.370396 2.447166 3.039316 -51.171553 8.654277 -8.032305 -29.816725 -22.068992 2.713808 -4.375900 3.154777 0.061940 0.739560 -0.517610 0.273050 4.948806 -4.471131 3.391066 55.364325 10.550935 2.311533 94.584470 73.608890 58.679233 2.739809 -0.769608 -0.355990 0.284370 0.296890 0.027700 
0.231710 17.280450 -1.717560 -6.265988 15.469905 4.716559 -14.962167 12.331561 2.103514 -0.837363 -0.897315 -11.707282 1.623948 3.762720 17.012212 -0.739535 4.024367 3.581522 -0.017260 -0.328100 -0.198640 18.607393 -11.079853 3.572209 -2.196893 4.282291 -26.293150 8.466532 -2.491246 0.393303 0.262041 -2.766404 3.506260 0.048220 1.022390 0.433160 -4.643829 1.455266 -6.712058 11.188419 0.489500 1.740286 -2.330470 -0.567474 8.752664 3.272465 4.642817 -7.637714 8.798889 -8.688779 20.921125 -6.817250 -6.927590 2.925050 -11.973888 2.234864 3.211141 -49.088862 8.798341 -7.158351 -34.951684 -23.385046 4.150073 -4.367223 3.177542 0.049650 0.755060 -0.533850 0.274890 5.772892 -4.335935 3.102397 53.723462 10.841801 1.022417 101.398861 74.339891 66.502830 2.890886 -0.027723 -0.378440 0.321150 0.301600 0.033160 
0.164370 17.231690 -1.722200 -5.974323 14.485907 4.888161 -14.989037 12.367265 2.118985 -0.732845 -0.874021 -11.262314 1.411342 3.756259 16.079230 -0.741651 4.032363 3.613565 -0.036260 -0.367440 -0.174000 18.578955 -11.048769 3.526861 -3.062335 4.155336 -26.350391 8.713192 -2.604603 0.969736 0.285867 -2.818502 3.485952 0.040110 1.055320 0.427670 -4.540355 1.317414 -6.663878 10.177120 0.727291 1.659253 -1.496158 -0.453263 8.489257 3.154739 4.773670 -7.272101 8.959769 -8.696664 21.014645 -7.510690 -6.612130 4.042500 -13.063395 2.554310 3.161743 -46.932062 8.934566 -6.207958 -39.009971 -25.321291 5.796857 -4.391377 3.224306 0.018630 0.788930 -0.570460 0.263390 7.196978 -4.698612 2.435960 51.745973 11.059810 0.824424 101.827076 75.920862 69.139041 3.049843 0.582813 -0.399590 0.331850 0.303570 0.024110 
0.111560 17.194850 -1.724370 -5.807804 13.976360 5.124916 -15.015160 12.450806 2.157107 -0.521066 -0.983717 -11.665177 1.267026 3.782549 15.969648 -0.773508 4.071436 3.610428 -0.049360 -0.387610 -0.178940 18.536929 -11.077771 3.435161 -3.797261 4.060428 -26.703755 9.257569 -3.136882 3.829212 0.313456 -2.914239 3.443412 0.049000 1.097050 0.443870 -4.433452 1.156853 -6.588950 9.579500 0.597445 1.682330 -1.222405 -0.610568 7.872849 3.272673 4.904846 -6.742458 9.220607 -8.404854 20.448993 -7.973900 -5.993110 4.607410 -14.987975 2.931066 2.854266 -45.003138 9.107333 -5.514327 -40.485488 -26.289133 6.576725 -4.449133 3.255525 -0.008930 0.838630 -0.606550 0.257660 8.940214 -5.216889 1.773146 50.033751 11.397209 2.898840 94.689631 79.475542 64.926966 3.328348 0.971689 -0.415510 0.335030 0.323400 0.017140 
0.064970 17.186560 -1.715940 -5.932713 13.350533 5.473913 -15.001963 12.491992 2.184387 0.042619 -1.215482 -12.901352 0.545362 4.075546 16.828154 -0.789681 4.199115 3.572737 -0.070410 -0.411410 -0.207370 18.532777 -11.154817 3.355107 -4.243190 4.178534 -27.240259 10.334713 -4.059426 8.406185 0.334958 -3.181573 3.331726 0.064090 1.165430 0.473000 -4.437747 1.141303 -6.514027 9.693277 0.458851 1.431842 -0.855273 -0.771213 7.045206 3.215028 4.792667 -6.042463 9.156338 -8.099488 19.408347 -8.365040 -5.517040 5.644530 -16.758143 3.891471 2.071794 -44.154339 8.329994 -4.553786 -40.421737 -25.261946 6.438400 -4.544835 3.287724 -0.074530 0.912920 -0.665500 0.260490 10.952151 -6.154649 1.303398 49.080359 11.512888 5.512593 76.139452 83.167396 52.493271 2.722439 -0.705221 -0.425180 0.328390 0.349230 0.026470 
0.003780 17.206070 -1.706560 -5.259157 13.038244 5.598437 -15.015851 12.556879 2.269555 -0.313378 -1.594453 -14.905056 0.750995 4.358442 19.907949 -0.752444 4.377271 3.473733 -0.065060 -0.406920 -0.225480 18.493740 -11.257710 3.253859 -5.004637 4.122034 -27.292640 10.901237 -5.231242 13.766128 0.277383 -3.588177 3.170354 0.052990 1.146990 0.494160 -4.360851 1.078647 -6.494196 8.586368 0.280456 2.001848 -0.441986 -0.847153 5.739556 3.138628 4.877527 -5.705976 9.288241 -7.732810 19.545837 -8.200200 -5.046060 5.830660 -17.336931 4.549497 1.607391 -44.684109 7.303616 -4.086214 -38.871522 -24.644013 6.124040 -4.537882 3.303682 -0.061530 0.904440 -0.647960 0.273970 11.740252 -6.611438 0.912494 50.159945 11.064124 2.116305 55.679407 79.669572 36.722482 1.936397 -2.093364 -0.406260 0.291290 0.342370 0.029310 
-0.055150 17.245040 -1.709800 -4.495576 12.962204 5.555582 -15.034348 12.542631 2.439063 -0.889620 -2.392846 -18.168527 1.162333 4.819240 24.932449 -0.591014 4.748230 3.302552 -0.040380 -0.366760 -0.201710 18.463740 -11.311417 3.146366 -5.733109 4.042823 -26.834991 11.391790 -6.528231 19.119941 0.160321 -4.138241 2.967324 0.023130 1.084160 0.490130 -4.289252 1.006719 -6.555802 7.772772 0.219996 2.808106 -0.380480 -0.739419 4.639587 3.006741 4.810871 -5.492692 9.065699 -7.845393 20.301256 -8.038470 -4.901520 5.967730 -17.242693 4.925084 1.095434 -46.465058 5.002552 -3.702223 -35.645579 -23.288674 5.287564 -4.487670 3.277484 -0.057390 0.851930 -0.591960 0.291300 11.847903 -6.765289 0.851980 52.214915 10.252889 -1.418020 38.619027 75.233026 22.710747 1.767025 -2.282108 -0.350580 0.250210 0.283910 0.048970 
-0.108460 17.290550 -1.709470 -4.201657 11.890603 5.065785 -15.020090 12.420634 2.685218 -1.031127 -3.399837 -21.670305 1.653789 5.460886 31.012225 -0.383775 5.444782 3.000866 -0.035700 -0.348560 -0.193890 18.477885 -11.359452 3.048593 -5.695389 4.067793 -25.622260 11.477166 -7.740549 23.926923 0.011626 -4.718430 2.774224 -0.026180 1.006100 0.474490 -4.309892 1.092686 -6.731205 8.071488 0.528108 4.016692 -1.001453 -0.178372 3.873353 2.996977 4.594795 -5.603688 8.543794 -7.775935 21.913680 -7.625380 -4.839500 5.565460 -17.041080 4.604732 0.858093 -48.900714 2.897640 -3.737071 -31.865170 -22.350868 4.345828 -4.422208 3.204864 -0.010710 0.776380 -0.519070 0.293280 11.476771 -6.112722 1.228660 54.535727 9.681082 -4.474774 25.208767 70.353045 12.182807 1.743499 -2.167024 -0.305390 0.223190 0.249710 0.057400 
-0.152880 17.340180 -1.732160 -4.440441 9.461053 4.256020 -14.950165 12.192620 3.028731 -0.363944 -4.406501 -25.382315 1.314276 6.559325 36.925783 -0.140821 6.305925 2.611146 -0.009250 -0.305230 -0.160930 18.542445 -11.426530 3.010980 -4.810958 4.372433 -24.201883 10.855817 -8.637190 28.524402 -0.179229 -5.203364 2.612131 -0.081240 0.861280 0.437270 -4.462498 1.410624 -7.094690 9.789290 1.219673 6.340969 -2.484768 1.041118 2.715696 3.103042 4.160374 -6.082704 7.696907 -7.257487 24.779302 -6.086790 -4.911180 3.525580 -16.681008 3.991890 0.806495 -51.451148 1.315074 -4.101866 -28.414413 -22.919774 3.826523 -4.280039 3.115533 0.099430 0.627460 -0.392700 0.274580 10.461697 -4.739195 2.027291 57.260639 9.354350 -7.061343 15.022068 64.196149 4.977360 1.794508 -1.937808 -0.248350 0.200730 0.213140 0.050740 
-0.205170 17.364060 -1.753460 -4.950026 6.922078 3.867091 -14.870010 11.892792 3.415805 1.048940 -5.289830 -29.564274 0.602894 7.866989 41.915863 0.105641 7.213696 2.243408 -0.004890 -0.279260 -0.190980 18.642023 -11.447208 2.942954 -3.430660 4.582714 -22.556733 9.574694 -8.889489 31.669263 -0.299663 -5.519249 2.521744 -0.121250 0.788630 0.401650 -4.674347 1.747076 -7.415778 11.927310 1.946395 7.812860 -3.935940 2.310931 1.946095 2.877797 3.278366 -6.468585 6.104842 -6.700866 27.369232 -3.924740 -5.824220 2.885610 -16.292255 3.141862 0.887883 -54.046731 -0.328236 -4.290604 -24.878020 -23.044227 3.116532 -4.180110 3.078531 0.143160 0.527900 -0.334840 0.278080 10.057387 -2.818213 2.621812 58.802900 9.294591 -8.492586 7.433399 57.234520 0.601234 1.862100 -1.764992 -0.202990 0.178700 0.193390 0.076110 
-0.261810 17.367320 -1.772110 -5.013202 4.195136 3.626238 -14.836488 11.641314 3.805492 2.706053 -5.841294 -33.124978 -1.043265 9.401176 44.813082 0.235095 7.935476 1.941891 0.019740 -0.259920 -0.157370 18.692087 -11.441808 2.845758 -2.640796 4.570952 -20.769435 8.302363 -8.819353 33.419553 -0.390363 -5.647924 2.476592 -0.139600 0.700200 0.371940 -4.748281 1.946083 -7.681809 12.894163 2.850797 9.181311 -4.681590 3.732190 1.226348 2.781180 2.452586 -6.759570 4.574920 -6.517691 29.973375 -2.741190 -6.452040 1.205880 -16.256201 2.631628 0.846037 -56.595507 -1.554367 -4.526145 -21.822701 -24.210601 2.622418 -4.096311 3.011988 0.228220 0.430740 -0.269150 0.255120 9.917818 -1.122325 3.046654 59.867383 9.201366 -8.957509 2.561476 50.253412 -1.503363 1.917471 -1.602049 -0.188910 0.178570 0.184600 0.055330 
-0.315500 17.337760 -1.770580 -4.410699 3.011316 4.073434 -14.849493 11.435130 4.129993 3.256217 -6.568078 -36.081560 -1.941414 9.642575 44.555875 0.243816 7.975846 1.943775 -0.040210 -0.334210 -0.212420 18.702502 -11.458798 2.677977 -2.668557 3.916509 -18.953966 7.580842 -8.650116 32.903723 -0.360026 -5.604151 2.521099 -0.180620 0.743700 0.350070 -4.728493 2.041049 -7.750225 12.440520 3.577600 9.093166 -4.782852 4.544284 0.759307 2.456975 1.878439 -6.848748 3.483799 -6.462873 30.553350 -1.965190 -7.181070 2.379650 -15.839272 2.646031 0.787083 -58.937266 -2.628019 -4.499835 -19.991186 -25.839004 2.475176 -4.104455 2.975123 0.225100 0.436540 -0.300940 0.257810 10.021726 -0.448532 3.244689 60.885057 8.262155 -8.959894 -0.360535 44.324217 -2.396524 1.962560 -1.516838 -0.215600 0.200610 0.213770 0.068360 
-0.367280 17.303510 -1.768070 -3.445619 2.663829 3.743806 -14.879181 11.487428 4.327025 2.905888 -7.144327 -37.333610 -2.013203 8.705507 41.780062 0.105440 7.323915 2.165111 -0.055170 -0.361460 -0.217480 18.649146 -11.556972 2.505277 -2.949449 2.720614 -16.001426 6.439955 -8.096220 30.637879 -0.324949 -5.297151 2.661563 -0.206380 0.744210 0.327270 -4.606508 1.841409 -7.784889 11.525519 3.902053 9.689019 -4.864846 5.017093 0.589196 2.347781 1.317409 -7.122994 2.201061 -6.186904 32.621345 -0.959380 -7.704860 1.865040 -16.415010 1.696970 0.939745 -60.189587 -3.702330 -4.782268 -17.546047 -28.391138 2.152676 -4.064980 2.910941 0.279870 0.404250 -0.280870 0.257140 10.850230 1.043685 3.569294 60.651423 7.368409 -8.720823 -1.906348 38.229083 -2.578214 2.011007 -1.401869 -0.235420 0.242560 0.226110 0.062690 
